PathFileType	4	(X/Y/Z)	C:/Users/opensim2020/Desktop/walking_exp_matlab/subject06_walking18_straight_03.trc																																																																																																																																											
DataRate	CameraRate	NumFrames	NumMarkers	Units	OrigDataRate	OrigDataStartFrame	OrigNumFrames																																																																																																																																							
100	100	6	47	mm	100	3430	309																																																																																																																																							
Frame#	Time	LFHD			RFHD			LBHD			RBHD			C7			T10			CLAV			STRN			RBAK			LSHO			LUPA			LELB			LFRM			LWRA			LWRB			LFIN			RSHO			RUPA			RELB			RFRM			RWRA			RWRB			RFIN			LASI			RASI			LPSI			RPSI			LTHI			LKNE			LTIB			LANK			LHEE			LTOE			RTHI			RKNE			RTIB			RANK			RHEE			RTOE			*39			*40			*41			*42			*43			*44			*45			*46		
		X1	Y1	Z1	X2	Y2	Z2	X3	Y3	Z3	X4	Y4	Z4	X5	Y5	Z5	X6	Y6	Z6	X7	Y7	Z7	X8	Y8	Z8	X9	Y9	Z9	X10	Y10	Z10	X11	Y11	Z11	X12	Y12	Z12	X13	Y13	Z13	X14	Y14	Z14	X15	Y15	Z15	X16	Y16	Z16	X17	Y17	Z17	X18	Y18	Z18	X19	Y19	Z19	X20	Y20	Z20	X21	Y21	Z21	X22	Y22	Z22	X23	Y23	Z23	X24	Y24	Z24	X25	Y25	Z25	X26	Y26	Z26	X27	Y27	Z27	X28	Y28	Z28	X29	Y29	Z29	X30	Y30	Z30	X31	Y31	Z31	X32	Y32	Z32	X33	Y33	Z33	X34	Y34	Z34	X35	Y35	Z35	X36	Y36	Z36	X37	Y37	Z37	X38	Y38	Z38	X39	Y39	Z39	X40	Y40	Z40	X41	Y41	Z41	X42	Y42	Z42	X43	Y43	Z43	X44	Y44	Z44	X45	Y45	Z45	X46	Y46	Z46	X47	Y47	Z47
																																																																																																																																														
116	1.15	-13.43384	1662.4989	1361.77075	-16.90066	1651.08093	1493.17163	-144.33412	1602.99902	1357.71387	-146.52512	1597.03882	1487.26208	-141.95352	1447.19617	1416.27942	-177.01707	1119.29541	1434.63879	-31.15848	1371.29639	1421.62659	8.81676	1195.95178	1424.01086	-215.27762	1279.62964	1501.27856	-82.96459	1397.45081	1256.67957	-107.87442	1195.07434	1191.7113	-127.0657	1084.1344	1184.6709	-118.34109	933.04907	1167.18152	-70.50846	814.56989	1213.17786	-129.84775	814.32953	1173.9043	-96.83756	729.66058	1177.19995	-78.37719	1406.90283	1580.54932	-111.8442	1209.29736	1672.27771	-97.02012	1087.82446	1685.27161	-67.66212	971.23108	1700.52966	8.13519	842.19684	1664.18701	-42.84368	836.32623	1706.73999	4.78309	767.27356	1707.74536	10.26914	962.23535	1341.19531	-9.92855	960.87244	1560.66724	-152.76376	989.66571	1355.63159	-158.40984	989.45532	1523.32349	-26.53506	651.78711	1265.12744	1.21608	492.3251	1288.86169	15.79825	235.92737	1295.42932	54.55579	65.91985	1336.51355	19.88408	49.48809	1384.51172	204.58427	48.90604	1344.05786	-101.65178	625.13025	1606.97083	-115.06709	498.2843	1590.84045	-283.22086	287.84296	1583.80029	-396.15088	138.99544	1540.49719	-442.32614	138.1376	1495.95898	-282.11215	37.11348	1536.5072	-116.89592	1696.86218	1418.34143	NaN	NaN	NaN	NaN	NaN	NaN	NaN	NaN	NaN	NaN	NaN	NaN	NaN	NaN	NaN	NaN	NaN	NaN	NaN	NaN	NaN
117	1.16	-6.12677	1663.95032	1359.61292	-10.19815	1652.66956	1491.07043	-137.24658	1604.66333	1355.16797	-139.8089	1598.87244	1484.65576	-135.27254	1448.69385	1414.23389	-169.63652	1121.05273	1432.99402	-24.03184	1372.95642	1419.88831	16.39432	1197.80408	1422.63074	-208.10556	1281.60498	1499.64563	-75.44485	1398.99023	1254.8595	-99.2423	1196.54773	1189.71655	-117.7254	1085.63159	1182.50317	-108.02467	934.50293	1164.92273	-60.12771	816.31488	1211.12524	-119.03879	815.59729	1171.55212	-85.81826	731.23877	1174.7511	-71.52541	1409.13428	1578.41016	-105.17213	1211.73303	1670.37268	-90.85339	1090.20337	1683.23267	-62.33686	973.38263	1698.87231	12.23045	843.38361	1663.17786	-38.83086	838.12201	1705.44507	7.99696	768.55872	1707.05725	17.62727	963.94147	1339.45959	-2.63947	962.58459	1558.83179	-145.25464	991.38641	1354.26672	-150.8102	991.01373	1521.78198	-21.54829	652.95355	1264.13269	3.80716	492.72742	1287.58948	16.65398	236.38657	1294.76721	54.50497	65.94032	1336.20642	19.50982	49.47085	1384.13135	204.44	48.73726	1344.76575	-92.1432	626.1098	1606.53601	-103.70434	499.06909	1591.18799	-274.59656	291.3898	1583.64038	-390.03992	144.67249	1540.15222	-435.66196	145.52405	1495.20288	-281.24945	37.35482	1536.10767	-109.76086	1698.54858	1415.77393	NaN	NaN	NaN	NaN	NaN	NaN	NaN	NaN	NaN	NaN	NaN	NaN	NaN	NaN	NaN	NaN	NaN	NaN	NaN	NaN	NaN
118	1.17	1.08788	1665.3269	1357.47559	-3.50444	1654.20215	1488.927	-130.04541	1606.28345	1352.58789	-133.20447	1600.60242	1482.1261	-128.15422	1450.0686	1412.04163	-162.39178	1122.69348	1431.20996	-16.87583	1374.62427	1418.04529	23.99026	1199.58398	1421.28577	-200.88461	1283.4812	1498.02527	-68.06808	1400.60925	1253.16675	-90.85163	1198.20227	1187.36926	-108.35682	1087.12891	1180.30457	-97.92017	936.16376	1162.59314	-49.77118	817.69067	1209.27197	-108.23242	817.25421	1168.85852	-74.50886	732.72662	1172.4032	-64.70924	1411.24658	1576.28125	-98.41985	1214.14905	1668.62708	-84.9168	1092.43945	1681.21741	-57.23505	975.49066	1697.21765	16.41665	844.59674	1662.14539	-34.78271	840.08435	1704.4187	11.20794	769.73572	1706.02466	24.93957	965.37329	1337.80554	4.50042	964.35046	1557.12927	-137.64418	992.9726	1352.75415	-143.79614	992.72577	1520.11731	-16.82263	653.68292	1263.13843	6.05396	492.94476	1286.56555	17.25414	236.74376	1294.37317	54.43986	65.92519	1336.0708	19.38716	49.45803	1383.9978	204.28459	48.60777	1345.09766	-82.19567	627.19086	1606.12146	-92.08359	500.00436	1591.73987	-265.42682	295.12558	1583.45703	-383.35617	150.65771	1539.88782	-428.10898	153.17949	1494.41443	-280.02832	37.3574	1536.69019	-102.72417	1700.1908	1413.2074	NaN	NaN	NaN	NaN	NaN	NaN	NaN	NaN	NaN	NaN	NaN	NaN	NaN	NaN	NaN	NaN	NaN	NaN	NaN	NaN	NaN
119	1.18	8.15333	1666.51257	1355.40247	3.28884	1655.66907	1486.93066	-123.02591	1607.65845	1350.13928	-126.64323	1602.19482	1479.65759	-121.31696	1451.29968	1410.05249	-155.18143	1124.23706	1429.32751	-9.86999	1376.05188	1416.22424	31.51962	1201.23865	1419.86475	-193.77765	1285.25037	1496.34326	-60.76296	1402.11572	1251.44128	-82.39173	1199.76501	1185.26563	-99.10284	1088.51807	1178.0304	-87.66653	937.69733	1160.33081	-39.02118	819.41571	1207.05396	-97.57795	818.80377	1166.32947	-63.26684	734.362	1169.88647	-57.93856	1413.15271	1574.15125	-91.66048	1216.41956	1667.06787	-79.26901	1094.53809	1679.29797	-52.20276	977.42188	1695.75012	20.71037	845.78448	1661.19861	-30.71591	841.75238	1703.26794	14.4849	770.83862	1704.92932	31.92392	966.48523	1336.3114	11.37082	966.0072	1555.35254	-130.22156	994.45557	1350.98071	-136.44173	994.20618	1518.20398	-12.77555	654.20605	1262.34766	8.13073	493.07336	1285.51477	17.09946	236.8047	1294.35779	54.30792	65.86815	1336.05383	19.32029	49.47564	1383.94153	204.1996	48.51046	1345.1156	-72.23681	628.36987	1605.75708	-80.09824	500.90894	1592.18274	-255.85457	298.97531	1583.25745	-376.32968	156.71497	1539.71436	-420.14462	160.7543	1493.76794	-279.41791	37.62299	1535.31165	-95.74105	1701.64404	1410.64868	NaN	NaN	NaN	NaN	NaN	NaN	NaN	NaN	NaN	NaN	NaN	NaN	NaN	NaN	NaN	NaN	NaN	NaN	NaN	NaN	NaN
120	1.19	15.10945	1667.53931	1353.30432	9.86835	1656.94873	1484.85632	-116.09971	1608.75244	1347.76819	-120.04562	1603.56665	1477.27795	-114.25323	1452.32104	1407.98035	-148.10344	1125.5658	1427.37134	-2.8196	1377.44263	1414.61719	38.93566	1202.71277	1418.43579	-186.53371	1286.57068	1494.38196	-53.57573	1403.51709	1249.78479	-73.89438	1201.13647	1183.31177	-89.94745	1089.86694	1175.66797	-77.41337	939.10406	1157.91382	-28.25284	821.07483	1204.8009	-86.60429	820.18146	1163.85608	-51.82072	735.96521	1167.4668	-51.27432	1414.76318	1572.10718	-85.07475	1218.4469	1665.64539	-73.45826	1096.36938	1677.58203	-47.15501	979.11273	1694.35791	25.04334	846.83698	1660.40186	-26.58098	843.26685	1702.27551	17.97355	771.60406	1703.79065	38.937	967.22974	1334.88123	18.05239	967.57562	1553.74341	-122.96559	995.70135	1349.19604	-129.57948	995.4696	1516.22461	-8.75983	654.56317	1261.54578	10.21712	493.16611	1284.49512	16.76712	236.7966	1294.42175	54.20745	65.84178	1336.04626	19.23778	49.49326	1383.98352	204.09256	48.45093	1345.04553	-62.33208	629.3667	1605.58569	-68.08306	501.83511	1592.55139	-246.32416	303.05066	1583.34924	-368.96759	162.76425	1539.65796	-411.96606	168.36273	1493.37451	-277.65594	38.69823	1535.25159	-88.91802	1702.85718	1408.18555	NaN	NaN	NaN	NaN	NaN	NaN	NaN	NaN	NaN	NaN	NaN	NaN	NaN	NaN	NaN	NaN	NaN	NaN	NaN	NaN	NaN
121	1.2	21.96697	1668.42688	1351.26453	16.3654	1658.07495	1482.86169	-109.23974	1609.57654	1345.55957	-113.50974	1604.66577	1475.05408	-107.39883	1453.14197	1406.04956	-141.10847	1126.62024	1425.38074	4.14505	1378.49268	1412.90161	46.15618	1203.88538	1416.96252	-179.62486	1287.5387	1492.32434	-46.41939	1404.72083	1248.09753	-65.63199	1202.46655	1180.89233	-80.71918	1090.99426	1173.328	-67.01826	940.35455	1155.49341	-17.19221	822.69141	1202.43359	-75.6656	821.32568	1161.37012	-40.00784	737.34869	1165.01099	-44.66988	1416.06189	1570.16187	-78.55476	1220.12073	1664.29883	-67.50049	1097.89197	1676.10583	-42.05165	980.49139	1693.11511	29.48764	847.72327	1659.66553	-22.28689	844.42078	1701.34119	21.61783	772.13794	1702.55017	45.95668	967.78455	1333.40125	24.6032	968.94153	1552.16016	-115.77282	996.67578	1347.3866	-122.9057	996.4635	1514.35107	-4.71121	655.02167	1260.70288	12.29044	493.23102	1283.41821	16.89754	236.8985	1294.19751	54.09576	65.82966	1336.00085	19.17694	49.47987	1384.02295	203.8922	48.40792	1344.88684	-52.24508	630.18536	1605.38501	-56.10899	502.59146	1592.8042	-235.95628	306.68036	1583.17188	-361.27933	168.73767	1539.74841	-404.01035	176.04466	1493.47534	-274.75333	40.77729	1535.48035	-82.23599	1703.83862	1405.82751	NaN	NaN	NaN	NaN	NaN	NaN	NaN	NaN	NaN	NaN	NaN	NaN	NaN	NaN	NaN	NaN	NaN	NaN	NaN	NaN	NaN
